/* XPM */
static char *_b34d3ccca3744adef8e0e040ae533bbk1HF88RQthZMDel9[] = {
/* columns rows colors chars-per-pixel */
"32 32 46 1 ",
"  c #72751B",
". c #72751C",
"X c #73751D",
"o c #6E7024",
"O c #6F7025",
"+ c #6F7026",
"@ c #717227",
"# c #717228",
"$ c #696554",
"% c #6C6854",
"& c #6C6856",
"* c #6D6956",
"= c #6C6957",
"- c #6D6957",
"; c #73705B",
": c #74705D",
"> c #74715D",
", c #7A7A5B",
"< c #7A7A5C",
"1 c #7D7D5E",
"2 c #7C7B6E",
"3 c #807F65",
"4 c #807F72",
"5 c #808061",
"6 c #828263",
"7 c #828265",
"8 c #838266",
"9 c #828268",
"0 c #87876B",
"q c #88876D",
"w c #838277",
"e c #858378",
"r c #848279",
"t c #878679",
"y c #85847A",
"u c #87857B",
"i c #86867A",
"p c #87867B",
"a c #87857C",
"s c #87867D",
"d c #89877E",
"f c #89887E",
"g c #8A887F",
"h c #8D8B80",
"j c #8E8C83",
"k c #908F85",
/* pixels */
"  677777666666.   ,,<<<<<<<<<<..",
" 0ttttttttuuuuqX 62222222222227.",
" httttttttttttjX w222222222222r.",
" httttttttttttj. w222222222222r.",
" httttttttttuujX w222222222222r.",
" htttttttttttajX w222222222222r.",
" httttttttttttjX w222222222222r@",
" httttttttttttj. w222222222222e ",
" httttttttttttj. r222222222222r.",
" httttttttttttj. r222222222222r.",
" httttttttttatjX w222222222222r.",
" htttttttttttdjX w222222222222r.",
" htttttttttttth. w222222222222r.",
" ;kkkkkkkkkkkk>. $eetrraraetaf=.",
" @>>>>>>>>>>>>#  o=$$$$$$=%%$=+.",
"  @@#@########.   +++++++#++@+  ",
"  122121111111..  112,15112<12  ",
" 892929444442w9. 2w944744444946 ",
" u2ww2444444w2u. r294444444444t ",
" uw2w94444444wf  aw24444444444a ",
" tt244444444w2g  t444444444444a.",
" u9w44444444w2t@.t444444444444s.",
" a2w444444442wh. a2w4444444444s.",
" tw244444444r2r. tw24444444444s.",
" t2w2w2w2w72w2a. u444444444444s.",
".aw2w244w22r4wd. w444444444444a.",
" aw944442ww244f. u44442w444429a#",
" t2w4444ww2r44t. t4444w244444wi.",
" t2w422w2e22w2t  tw2ww2we2e242h+",
" =fdgggkfhhhfg%  %fgffffsffhhh= ",
" @===%%%%=%%%-@  @%%==%%==%%==+ ",
"  ++@++@++@+@@   X##++#++#+o+o  "
};
