/* XPM */
static char *c25eb6d11eac40aa9bb25194e35336d49VpbNGRtSVghHaJO[] = {
/* columns rows colors chars-per-pixel */
"32 32 111 2 ",
"   c #00000B",
".  c #000515",
"X  c #000318",
"o  c #010E1B",
"O  c #04141E",
"+  c #071821",
"@  c #0A2C2B",
"#  c #0E322E",
"$  c #0F3330",
"%  c #133634",
"&  c #163B37",
"*  c #1E4131",
"=  c #1C4139",
"-  c #254537",
";  c #2A4C3A",
":  c #345236",
">  c #375A3C",
",  c #395F3C",
"<  c #3D633D",
"1  c #1F5142",
"2  c #214F43",
"3  c #3B474D",
"4  c #235244",
"5  c #3F6242",
"6  c #306750",
"7  c #316951",
"8  c #367356",
"9  c #435A55",
"0  c #446743",
"q  c #466A45",
"w  c #496F44",
"e  c #4D754A",
"r  c #4A645A",
"t  c #516B57",
"y  c #516958",
"u  c #57745A",
"i  c #5A755C",
"p  c #5C785E",
"a  c #596C64",
"s  c #5F6F69",
"d  c #5B7360",
"f  c #667B6D",
"g  c #6C7E73",
"h  c #7A7E7E",
"j  c #5F9054",
"k  c #608F54",
"l  c #649456",
"z  c #689B58",
"x  c #6DA05B",
"c  c #70A15E",
"v  c #678066",
"b  c #718475",
"n  c #748977",
"m  c #75857A",
"M  c #78877B",
"N  c #748978",
"B  c #798D7E",
"V  c #7F917F",
"C  c #72A760",
"Z  c #75A961",
"A  c #7BBA60",
"S  c #7EA673",
"D  c #81BD66",
"F  c #84AD74",
"G  c #82C563",
"H  c #86C06C",
"J  c #88C56C",
"K  c #89C96B",
"L  c #8ECB71",
"P  c #90CC72",
"I  c #96D576",
"U  c #9CDD7A",
"Y  c #7F9180",
"T  c #819682",
"R  c #889787",
"E  c #92B28A",
"W  c #9ACD82",
"Q  c #9FC093",
"!  c #A9DF8C",
"~  c #A2C296",
"^  c #B3DD9E",
"/  c #B4C9AC",
"(  c #B9DBA1",
")  c #BFCEB6",
"_  c #BBE6A3",
"`  c #BBE8A2",
"'  c #C1FA9E",
"]  c #C1EBA8",
"[  c #CAEBAE",
"{  c #C9F4AD",
"}  c #C9F5AD",
"|  c #D0FEB2",
" . c #D1FEB2",
".. c #DDFCC7",
"X. c #DDFCC8",
"o. c #E0F8CE",
"O. c #E1F9CE",
"+. c #E0F8CF",
"@. c #E1F8CF",
"#. c #E0F9CF",
"$. c #E6FBD5",
"%. c #E6FCD5",
"&. c #E6FDD5",
"*. c #EBFFDB",
"=. c #EEFFDA",
"-. c #F4FFDF",
";. c #F3FFE0",
":. c #FAFFE7",
">. c #FCFFE4",
",. c #FFFFEE",
"<. c #FFFFF3",
/* pixels */
"7 6 7 7 6 6 7 7 7 7 7 6 6 7 7 7 6 7 6 7 7 6 7 7 7 7 6 7 6 7 7 7 ",
"7 7 7 7 6 6 7 7 8 4 & & & & & & & & & % & 4 8 7 7 7 7 7 6 7 7 7 ",
"6 7 7 6 7 7 7 7 6 & + + + + + + + + + + O = 7 7 6 6 7 7 6 7 6 6 ",
"6 7 6 6 6 8 7 4 % ; 0 w 0 0 0 0 0 0 0 q 0 3 % 2 7 8 7 6 7 6 6 6 ",
"6 6 7 7 7 7 7 % + 0 D P H D H H H H H K H 0 + % 6 8 7 6 6 6 6 7 ",
"7 7 6 7 6 4 = ; q c W U I I L L L I I ! I C 0 ; = 1 7 7 7 7 7 6 ",
"6 7 7 8 7 % + q H L D D H H H H D D H D D P D q O = 7 8 6 7 6 6 ",
"6 6 7 8 7 @ . w I C 5 : 5 l H P H k 5 : 5 Z I w . @ 7 8 6 7 6 7 ",
"7 7 7 7 7 % + e H e + X O w J I D 0 + X + e D e O % 6 7 7 7 7 7 ",
"6 7 7 1 = r N p 5 t g h B S A G D F B h g t 0 p n r = ; 7 7 6 7 ",
"7 7 7 # + Y #.M + f #.;.#.^ H A D ( #.-.$.f + n X.V + # 7 8 7 6 ",
"7 7 7 @ o R :.~ 5 E =.) T E ^ ( ( E T ) =.E 0 ~ >.R O @ 7 7 7 7 ",
"7 7 7 # + M X.` H ` $.g + f #.:.$.f + g #._ H _ $.M + # 6 7 7 7 ",
"7 7 7 ; = 9 b F I | &.s   a $.,.&.a   s $.| I F b 6 = ; 6 7 7 7 ",
"7 7 7 7 7 % + < H { #.b + f #.>.$.f + g #.{ J < + % 6 7 7 6 7 7 ",
"7 7 7 8 8 1 $ * 0 F _ E T / =.>.*./ T ~ _ F < & % 1 7 8 7 6 7 7 ",
"7 6 7 7 6 8 7 % + < H _ #.$.#.#...$.o._ A q + % 7 7 7 7 7 7 7 7 ",
"7 7 7 7 8 1 & ; 5 < 5 i N b f f f b n u > 5 0 - & 4 7 8 7 7 6 6 ",
"7 7 6 8 6 % + e H e + o + + + + + + + o + e A e + % 7 7 7 7 6 6 ",
"7 7 7 2 % - q Z I x 5 y g g f f f g g t 0 c I Z q - % 4 7 7 6 6 ",
"7 8 6 % + 0 H L H D J ^ $.&.#.#.X.$.@.( A D H L H q + % 7 8 6 7 ",
"7 4 & 2 0 x K z q j L ! _ X.-.:.;.X.] ! P l q z K z q ; = 4 7 7 ",
"6 & + 0 G I H 5 + 5 J K H ( #.*.@.^ D K D 5 + 0 H I D 0 + % 7 8 ",
"6 % o w I { ` d o > H K A W ( _ ( W D K H 5 o s ` } I 0 + $ 7 8 ",
"6 & + < D { #.m + , D P D H H H H H H L H , + b #.{ H < + % 7 8 ",
"7 4 = ; q f h 9 + 0 H P D L J L K J H L H 5 + 3 N v 0 ; = 4 7 7 ",
"6 7 6 = + O O . + q J P D F L D H H G L H q + O O O + - 6 7 7 7 ",
"7 8 8 4 % # # + + 0 D L D z w 0 w l H L A 0 + + # # % 4 8 8 6 7 ",
"7 7 6 7 7 8 6 % + 0 D I H q + X + q H I H 0 + % 7 8 7 7 6 6 6 6 ",
"7 6 6 7 7 8 7 % + i ( [ ^ i O   o d ( [ ^ p + % 7 8 7 7 6 6 6 7 ",
"6 6 6 6 7 8 7 # + b X.:.#.N +   + n #.:.#.b O # 7 7 7 7 7 7 7 6 ",
"6 6 6 6 7 7 7 # + M *.<.*.B +   O B *.<.*.n O # 7 8 6 6 6 7 7 6 "
};
