/* XPM */
static char *fb13617fd9fa435ecbc64443e5c4fb94vP3x0TXdZ6bzb5ch[] = {
/* columns rows colors chars-per-pixel */
"32 32 105 2 ",
"   c #00000B",
".  c #000312",
"X  c #000B16",
"o  c #000318",
"O  c #000C1B",
"+  c #04131E",
"@  c #071821",
"#  c #0B2E2B",
"$  c #132822",
"%  c #0E322E",
"&  c #10362F",
"*  c #1B332B",
"=  c #133533",
"-  c #163B37",
";  c #183C37",
":  c #22382F",
">  c #2B3D3C",
",  c #1C4139",
"<  c #194A3B",
"1  c #2A4B3A",
"2  c #2D523A",
"3  c #335235",
"4  c #335B35",
"5  c #365C39",
"6  c #395F3C",
"7  c #3E633E",
"8  c #41683F",
"9  c #214F43",
"0  c #245244",
"q  c #3F6341",
"w  c #316951",
"e  c #357156",
"r  c #445E55",
"t  c #446744",
"y  c #456B45",
"u  c #486D46",
"i  c #4A6B4F",
"p  c #497145",
"a  c #4D7349",
"s  c #476357",
"d  c #4D6854",
"f  c #506C57",
"g  c #546A5F",
"h  c #58745C",
"j  c #5F7B5F",
"k  c #5B7360",
"l  c #5D7861",
"z  c #637B64",
"x  c #667B6D",
"c  c #6C7D73",
"v  c #7B7D7E",
"b  c #5A8C4D",
"n  c #649657",
"m  c #669B55",
"M  c #6C9B5B",
"N  c #72A65E",
"B  c #668364",
"V  c #6B9362",
"C  c #6F8376",
"Z  c #738877",
"A  c #718279",
"S  c #79877D",
"D  c #748978",
"F  c #798B7D",
"G  c #7F927F",
"H  c #7FBD65",
"J  c #7DA871",
"K  c #83BE69",
"L  c #86B077",
"P  c #86C06C",
"I  c #89C76B",
"U  c #88C86B",
"Y  c #8ECB71",
"T  c #90CD73",
"R  c #95D475",
"E  c #94D872",
"W  c #9CDD79",
"Q  c #7E8B80",
"!  c #7F9280",
"~  c #819683",
"^  c #9EBF93",
"/  c #9FD583",
"(  c #A5DB8A",
")  c #A9DE8D",
"_  c #ADD997",
"`  c #B3DC9E",
"'  c #BDF59B",
"]  c #B9DFA4",
"[  c #BCCCB3",
"{  c #BBE6A2",
"}  c #C9D5BF",
"|  c #C9F4AD",
" . c #CEF1B1",
".. c #D5F0C3",
"X. c #DEFAC7",
"o. c #E0F8CF",
"O. c #E6FBD5",
"+. c #E6FCD5",
"@. c #EBFFDB",
"#. c #ECFFDB",
"$. c #F3FFE0",
"%. c #F5FFE5",
"&. c #FCFFE5",
"*. c #FFFFEB",
"=. c #FFFFF3",
/* pixels */
"w w w w w w w w w w w w w w w w w w w w w w w w w w w w w w w w ",
"w w w w w w w 0 - - - - - - - ; - - - 0 e w w w w w w w w w 0 w ",
"w w w w w w w , @ + @ @ @ @ @ @ + + + > w w w w w w w w w w w w ",
"w w w w e 0 = 1 t y y y t t t t t y t 1 - 0 w e w w w w w w w w ",
"w w w w w = + y K T K L I L K K P Y P t + - w w w w w w w w w w ",
"w w w 9 , 1 t N R W W R T T R T Y R Y M t 1 ; 0 w w w w w w w w ",
"w w w = @ t K T K K P K K K P P P P P Y P t @ - w w w w w w w w ",
"w e w = + a T M 6 3 t n T T K K H H H T U u + = w w w w w w w w ",
"w w w - @ a P a @ o @ u P T K K P K P Y P y @ = w w w w w w w w ",
"w w w - @ q H L ! v c d 6 b K ( ` { ` ( P q @ = w w w w w w w w ",
"w w w - @ 7 P { o.$.o.c @ 5 K { o.#.+.{ P 7 @ = w w w w w w w w ",
"w w w = @ l ` ^ ! [ O.[ c V K { O.%.#.{ P 7 @ = w w w w w w w w ",
"w w w % @ L o.D @ x X.$.o._ K _ o.@.o.{ P q @ = w e w w w w w w ",
"w e w # O ~ %.A   g O.*.$.{ K ` +...` ( Y y + & w w w w w w 0 w ",
"w w w % @ Q o.D @ x o.$.o._ K ] o.] P U P q @ = w w w w w w w w ",
"w w w 0 > r c Q ~ [ #.X.{ / Y ( { ) U m t 1 > 0 w w w w w w w w ",
"w w w w w % @ C X.$.o.` K H P P P Y P t @ = w e w w w w w w w w ",
"w w w w w < % s ! Q x i 4 5 q q 6 t u 1 - 0 w w w w w w w w w w ",
"w w w w w e w , @ @ @ @ @ @ @ @ @ + @ , w w w w w w w w 0 w w w ",
"w w w w w e e % X > x Q Q l q q q * @ - w e w w w w w w w w w w ",
"w w w w w w w % @ Z o.%.O.` K I K t @ = w e w w w w w w w w w w ",
"w w w w w e w % @ ! $.} ~ J U E Y u @ = w w w w w w w w w w w w ",
"w w w w w w w % + G o.S @ 6 P R K t @ = w w w w w w w w w w w w ",
"w w w w w w w & @ B ] f . f { ' Y t @ % w e w w w w w w w w w w ",
"w w 0 w w e w & @ a P 8 + Z O.| P q @ - w w w w w w w w w w w w ",
"w w w w w w w = @ p U N u k A z u 2 , 0 w w w w w w w w w w w w ",
"w w w w w w w = @ t P R P u @ X @ , w w w w w w w w w w w w w w ",
"w w w w w e w ; @ : u N U m 4 $ O - w e w w w 0 w w w w w w w 0 ",
"w w w w w e w , @ X @ u P R K t @ = w w w w w w w w w w w w w w ",
"w w w w w w w , @ . O h `  .{ j @ = w e w w w w w w w w w w w w ",
"w w w w w e w , @ X + Z O.&.O.C @ % w w w w w w w w w w w w w w ",
"w w w w w w w , + X + F @.=.#.S @ & w w w w w w w w 0 w w w w w "
};
