/* XPM */
static char *_2461c6b006944579701697a23372bebuimdyK3ymrFOdWMH[] = {
/* columns rows colors chars-per-pixel */
"32 32 107 2 ",
"   c #00000B",
".  c #000312",
"X  c #000A16",
"o  c #000318",
"O  c #000C1B",
"+  c #04131E",
"@  c #071821",
"#  c #0B2F2B",
"$  c #132822",
"%  c #0E322E",
"&  c #10352F",
"*  c #1C322C",
"=  c #133533",
"-  c #163B37",
";  c #22372F",
":  c #2A3B3D",
">  c #1C4139",
",  c #1A4A3B",
"<  c #2A4C3A",
"1  c #2D533B",
"2  c #335235",
"3  c #345B36",
"4  c #365D38",
"5  c #395E3C",
"6  c #3D633D",
"7  c #214F43",
"8  c #245244",
"9  c #3F6341",
"0  c #316951",
"q  c #357256",
"w  c #446743",
"e  c #456A44",
"r  c #4A6D47",
"t  c #4A7146",
"y  c #4D7449",
"u  c #476257",
"i  c #4D6754",
"p  c #4B6950",
"a  c #506B56",
"s  c #56695F",
"d  c #58735C",
"f  c #5B7360",
"g  c #5E7861",
"h  c #637B64",
"j  c #667A6D",
"k  c #6C7D73",
"l  c #598C4E",
"z  c #659657",
"x  c #669B54",
"c  c #6B9B5B",
"v  c #6DA15B",
"b  c #71A65F",
"n  c #668464",
"m  c #6A9363",
"M  c #6F8276",
"N  c #718375",
"B  c #738877",
"V  c #71827A",
"C  c #7A877F",
"Z  c #758879",
"A  c #798B7D",
"S  c #7EA771",
"D  c #80BD66",
"F  c #83BE69",
"G  c #86B077",
"H  c #86C06C",
"J  c #88C76B",
"K  c #89C86B",
"L  c #8ECB71",
"P  c #90CD73",
"I  c #95D474",
"U  c #9BDD79",
"Y  c #7E8A81",
"T  c #7F9280",
"R  c #819683",
"E  c #8A9A89",
"W  c #9EBF92",
"Q  c #B2BFAC",
"!  c #9FD583",
"~  c #A1D489",
"^  c #A5DB8A",
"/  c #AADF8C",
"(  c #ADD997",
")  c #B3DC9E",
"_  c #BDF59B",
"`  c #BCCCB3",
"'  c #B7E3A0",
"]  c #BBE5A3",
"[  c #C9D6BE",
"{  c #C1EAA9",
"}  c #C9F5AE",
"|  c #D5F1C2",
" . c #DFFAC6",
".. c #E1F8CE",
"X. c #E0F8CF",
"o. c #E0F9CF",
"O. c #E6FCD5",
"+. c #EBFFDA",
"@. c #EBFFDB",
"#. c #EEFFDA",
"$. c #F3FFDF",
"%. c #F4FFDF",
"&. c #F3FFE0",
"*. c #F4FFE5",
"=. c #FBFFE5",
"-. c #FFFFEA",
";. c #FFFFF3",
/* pixels */
"0 0 0 0 0 0 0 0 0 0 0 0 0 0 0 0 0 0 0 0 0 0 0 0 0 0 0 0 0 0 0 0 ",
"0 0 0 0 0 0 0 0 0 q 0 8 - - - - - - - - - = - 8 q 0 0 0 0 0 0 0 ",
"0 0 0 0 0 0 0 8 0 0 0 - @ + @ + @ + + @ @ @ @ : 0 0 0 0 0 0 0 0 ",
"0 0 0 0 0 0 0 q 0 8 = < w e e e e e e e w e w < = 7 0 q 0 0 0 0 ",
"0 0 0 0 0 0 0 0 0 - @ w F P H F H H H F H P F e @ = 0 0 0 0 0 0 ",
"0 0 0 0 0 0 0 8 - < w c P I P P P P P P U U I v w < > 8 0 0 0 0 ",
"0 0 0 0 0 0 0 * @ w F P F F F F F H H H F F F P F w @ % 0 0 0 8 ",
"0 0 0 0 0 0 0 = + p P P F F F F F P P z 5 2 w c L y @ = 0 q 0 0 ",
"0 0 0 0 0 0 0 = @ w F P F H F F F L F e @ o @ y F y @ = 0 q 0 0 ",
"0 0 0 0 0 q 0 = @ w F ^ ) ' ' ~ F l 9 i k Y Y G D 9 @ = 0 0 0 0 ",
"0 0 0 0 0 0 0 = @ 6 F ] X.@.X.] F 5 @ k  .*.X.] H 6 @ = 0 0 0 0 ",
"0 0 0 0 0 0 0 = @ w H { @.*.O.' F m k Q @.` R W ) g @ = 0 0 0 0 ",
"0 0 0 0 0 0 0 = @ 6 H ]  .@.X.( H ) X.&.X.j @ B X.T @ % 0 0 0 0 ",
"0 0 0 0 0 q 0 = + e L ^ ) | O.) H ] &.-. .s   V &.E @ # 0 0 0 0 ",
"0 8 0 0 0 0 0 - @ e H J H ] X.) F ( X.&.O.j @ B X.Y @ % 0 0 0 0 ",
"0 0 0 0 0 0 0 8 > < w x K / ] ^ L ! ]  .#.` T Z M u > 8 0 0 0 0 ",
"0 0 0 0 0 0 0 0 0 = @ e H L H H F D F ) X.%.X.N @ % 0 0 0 0 0 0 ",
"0 0 0 0 0 0 0 0 0 7 = 1 r w 5 6 w 4 4 i j Y R u % , q q 0 0 0 0 ",
"8 0 0 0 0 0 0 0 0 0 0 > @ + @ + @ @ @ @ @ + @ - 0 0 0 0 0 0 0 0 ",
"0 0 0 0 0 0 0 0 0 q 0 - O * 9 w 9 g C Y j : O & 0 q 0 0 0 0 0 0 ",
"0 0 0 0 0 0 0 0 0 q 0 = @ e H K F ) X.%.X.N @ % 0 0 0 0 0 0 0 0 ",
"0 0 0 0 0 0 0 0 0 q 0 = @ t L I J S R [ $.R @ % 0 0 0 0 0 0 0 0 ",
"0 0 0 0 0 0 0 0 0 0 0 = @ e H I H 5 @ C  .A @ % 0 0 0 0 0 0 0 0 ",
"0 0 0 0 0 0 0 0 0 0 0 = + w L _ { a . a ) n @ - 0 0 0 0 0 0 0 0 ",
"0 0 0 0 0 0 0 0 0 0 0 = @ 9 H } X.Z @ w F y @ = 0 0 0 0 0 0 0 0 ",
"0 0 0 0 0 0 0 0 0 0 0 7 > 1 e h V d e v J t @ - 0 0 0 0 0 0 0 0 ",
"0 0 0 0 0 0 0 0 0 0 0 0 0 > + X @ e H I F e @ = 0 0 0 0 0 0 0 0 ",
"0 0 0 0 0 0 0 0 0 0 0 q q - + $ 4 v J b p ; @ - 0 q 0 0 0 0 0 0 ",
"0 0 0 0 0 0 0 0 0 0 0 q 0 = @ w H I H e @ o @ > 0 0 0 0 0 0 0 0 ",
"0 0 0 0 8 0 0 0 0 0 0 0 0 = @ g ] } ) d + . @ > 0 0 0 0 0 0 0 0 ",
"0 0 0 0 0 0 0 0 0 0 0 0 0 % @ M  .=.O.B @ . @ > 0 0 0 0 0 0 8 0 ",
"0 0 0 0 0 0 0 0 0 0 0 q 0 % @ C @.;.#.A @ . @ > 0 q 0 0 0 0 0 0 "
};
