/* XPM */
static char *_85a34a1c774499ceffaea04973dae9c0X4DPLFK3sEFnSQ9[] = {
/* columns rows colors chars-per-pixel */
"32 32 83 1 ",
"  c #000315",
". c #000418",
"X c #010E1C",
"o c #04141E",
"O c #071821",
"+ c #0B2D2B",
"@ c #0E332E",
"# c #0F3230",
"$ c #133634",
"% c #163A36",
"& c #1C4039",
"* c #234435",
"= c #2A4C3A",
"- c #3A543C",
"; c #37593C",
": c #3B5D3D",
"> c #3F633E",
", c #405B3F",
"< c #1F5041",
"1 c #214F43",
"2 c #3A474D",
"3 c #235243",
"4 c #3F6241",
"5 c #306750",
"6 c #316951",
"7 c #367256",
"8 c #445C56",
"9 c #465F58",
"0 c #436744",
"q c #456A45",
"w c #4D744A",
"e c #5A7261",
"r c #639157",
"t c #669559",
"y c #6A9B5A",
"u c #6DA05A",
"i c #70A25F",
"p c #678166",
"a c #718475",
"s c #75857B",
"d c #758879",
"f c #76A961",
"g c #7FBB65",
"h c #81BD66",
"j c #86BF6C",
"k c #83A976",
"l c #85AC76",
"z c #85C06C",
"x c #85C06D",
"c c #87C06C",
"v c #86C16C",
"b c #87C16C",
"n c #86C06D",
"m c #87C56C",
"M c #88C76B",
"N c #88C46C",
"B c #8AC56F",
"V c #88C86B",
"C c #8CCA6E",
"Z c #8DCA6E",
"A c #8BC670",
"S c #8ECA71",
"D c #8ECB71",
"F c #8ECC71",
"G c #90CD71",
"H c #92D174",
"J c #93D274",
"K c #94D275",
"L c #96D575",
"P c #96D675",
"I c #97D675",
"U c #97D676",
"Y c #839184",
"T c #839284",
"R c #C1FA9E",
"E c #C1EAA8",
"W c #C1EBA8",
"Q c #C9F5AD",
"! c #D1FAB5",
"~ c #D1FBB5",
"^ c #E0F8CF",
"/ c #E0F9CF",
"( c #FBFFE5",
/* pixels */
"65565666666666555656666666565665",
"6666566663%%%%%%%%%%%36666566655",
"566666675&OoOOOOOOOoO&6666655555",
"5665666<$=qqqq0q00qq0=$<67666655",
"5556666%O0nScccnnjnFcqO%57565655",
"656763%=0yFHSFFZSSCHSy0=&<566655",
"55665$OqcFccccjMnjjcnFn0O$675665",
"56676+ 0FHccncbcnBccnJS>.+676566",
"66666$OqjSnnbjbjcmnzcScqO%666666",
"5663*9dkjBnncjjbcccmcmckd8&=6666",
"666@od/EjhnbjbjbccmccgcW/dO@6665",
"665+XY(!jhnBbjbjnnccngc!(TX+6665",
"676@Od/EjhjnjnjbmnnnngnW/sO@6666",
"6663&8alZZBcnnBjnnnnnZSls6&=6666",
"65666$OqBGjjnnBjnnnnnFn0O$676666",
"665663$&4tGGSBnjnBFHZy4*@3665666",
"6666665$O0AGnnnccznFn0O$66666666",
"666763%=40>:4rmFcr4:444=%3676655",
"55666$Owjwo.OqcLnqO.OwcwO%666665",
"6663%*qfKi4-4rmFBr4-0uLf0*$<6665",
"666%OqcZnnnnccccnncccccZb0o$6766",
"63&=qyVyqySJSCzcBBFHFtqyMuq=&366",
"6%O0jLj4O4jSczcnnncSn4O4bIn0o$67",
"6$oqLREeX;BFcccnnncSn;XeWRLqo+57",
"6%O>BQ^aO:cSccnnjjjSj:Oa^Qc>o%67",
"63&=qps2O0nSnZFSFAjGc0O2spq=*366",
"676&OoOXOqnFcccjnncZcqOoooo%6666",
"6663$@@OOqnJctq0qycKcqoo@$%36766",
"6556666%O0nLBqo.OqnLj0o%67666666",
"6556676%O0cLj0o X0BIM0o%67666666",
"6656676%O0cLjqO.OqjLB0o$66555566",
"6656566#O0cLBqO.OqjLMqo$67656555"
};
